<?xml version="1.0" standalone="no"?>
<svg viewBox="0 0 200 200" xmlns="http://www.w3.org/2000/svg">
  <path d="M26.6,-47.9C35.5,-35.6,44.6,-30,51.5,-21.6C58.4,-13.1,63.2,-1.6,62.5,9.6C61.8,20.8,55.6,31.8,46.5,37.7C37.3,43.6,25.3,44.3,13.7,48.8C2,53.2,-9.2,61.4,-20.4,61.6C-31.6,61.9,-42.7,54.3,-45.9,43.7C-49.1,33,-44.3,19.4,-47.8,5.9C-51.3,-7.6,-63,-20.9,-64.9,-35C-66.8,-49.2,-58.9,-64.3,-46.5,-75C-34,-85.7,-17,-92,-4.1,-85.6C8.8,-79.2,17.6,-60.2,26.6,-47.9Z" transform="translate(100 100)" />
</svg>
